<svg width="24" height="24" viewBox="0 0 24 24" fill="none" xmlns="http://www.w3.org/2000/svg">
  <path d="M3 5.25C3 4.00736 4.00736 3 5.25 3H18.75C19.9926 3 21 4.00736 21 5.25V18.75C21 19.9926 19.9926 21 18.75 21H5.25C4.00736 21 3 19.9926 3 18.75V5.25ZM5.25 4.5C4.83579 4.5 4.5 4.83579 4.5 5.25V18.75C4.5 19.1642 4.83579 19.5 5.25 19.5H18.75C19.1642 19.5 19.5 19.1642 19.5 18.75V5.25C19.5 4.83579 19.1642 4.5 18.75 4.5H5.25ZM8.25 7C8.66421 7 9 7.33579 9 7.75V13.25C9 13.6642 8.66421 14 8.25 14H6.75C6.33579 14 6 13.6642 6 13.25V7.75C6 7.33579 6.33579 7 6.75 7H8.25ZM12.75 7C13.1642 7 13.5 7.33579 13.5 7.75V16.25C13.5 16.6642 13.1642 17 12.75 17H11.25C10.8358 17 10.5 16.6642 10.5 16.25V7.75C10.5 7.33579 10.8358 7 11.25 7H12.75ZM17.25 7C17.6642 7 18 7.33579 18 7.75V11.25C18 11.6642 17.6642 12 17.25 12H15.75C15.3358 12 15 11.6642 15 11.25V7.75C15 7.33579 15.3358 7 15.75 7H17.25Z" fill="currentColor" />
</svg>
