<svg width="24" height="24" viewBox="0 0 24 24" xmlns="http://www.w3.org/2000/svg">
  <path d="M21 6.25c0-1.24-1-2.25-2.25-2.25H5.25C4.01 4 3 5 3 6.25v11.5C3 18.99 4 20 5.25 20h13.5c1.24 0 2.25-1 2.25-2.25V6.25ZM5.25 5.5h13.5c.41 0 .75.34.75.75v11.5c0 .41-.34.75-.75.75H5.25a.75.75 0 0 1-.75-.75V6.25c0-.41.34-.75.75-.75ZM6 8.75c0-.41.34-.75.75-.75h1.5c.41 0 .75.34.75.75v1.5c0 .41-.34.75-.75.75h-1.5a.75.75 0 0 1-.75-.75v-1.5Zm4 0c0-.41.34-.75.75-.75h1.5c.41 0 .75.34.75.75v1.5c0 .41-.34.75-.75.75h-1.5a.75.75 0 0 1-.75-.75v-1.5Zm4 0c0-.41.34-.75.75-.75h1.5c.41 0 .75.34.75.75v1.5c0 .41-.34.75-.75.75h-1.5a.75.75 0 0 1-.75-.75v-1.5ZM6 12.75c0-.41.34-.75.75-.75h1.5c.41 0 .75.34.75.75v1.5c0 .41-.34.75-.75.75h-1.5a.75.75 0 0 1-.75-.75v-1.5Zm4 0c0-.41.34-.75.75-.75h5.5c.41 0 .75.34.75.75v1.5c0 .41-.34.75-.75.75h-5.5a.75.75 0 0 1-.75-.75v-1.5Z" fill="currentColor" />
</svg>
