<svg width="24" height="24" viewBox="0 0 24 24" fill="none" xmlns="http://www.w3.org/2000/svg">
  <path d="M11.75 2C11.75 1.58579 11.4142 1.25 11 1.25C10.5858 1.25 10.25 1.58579 10.25 2V2.5H5.25C4.00736 2.5 3 3.50736 3 4.75V9.75C3 10.1642 3.33579 10.5 3.75 10.5C4.16421 10.5 4.5 10.1642 4.5 9.75V4.75C4.5 4.33579 4.83579 4 5.25 4H10.25V4.5C10.25 4.91421 10.5858 5.25 11 5.25C11.4142 5.25 11.75 4.91421 11.75 4.5V4H16.75C17.1642 4 17.5 4.33579 17.5 4.75V9.75C17.5 10.1642 17.8358 10.5 18.25 10.5C18.6642 10.5 19 10.1642 19 9.75V4.75C19 3.50736 17.9926 2.5 16.75 2.5H11.75V2ZM11 11.25C7.27208 11.25 4.25 14.2721 4.25 18C4.25 21.7279 7.27208 24.75 11 24.75C14.7279 24.75 17.75 21.7279 17.75 18C17.75 14.2721 14.7279 11.25 11 11.25ZM5.75 18C5.75 15.1005 8.1005 12.75 11 12.75C13.8995 12.75 16.25 15.1005 16.25 18C16.25 20.8995 13.8995 23.25 11 23.25C8.1005 23.25 5.75 20.8995 5.75 18Z" fill="currentColor" />
</svg>
