<svg width="24" height="24" viewBox="0 0 24 24" xmlns="http://www.w3.org/2000/svg">
  <path d="M19.25 2a2.75 2.75 0 0 1 2.75 2.75v10.5a2.75 2.75 0 0 1-2.75 2.75H8.75A2.75 2.75 0 0 1 6 15.25V4.75A2.75 2.75 0 0 1 8.75 2h10.5ZM19.25 3.5H8.75c-.69 0-1.25.56-1.25 1.25v10.5c0 .69.56 1.25 1.25 1.25h10.5c.69 0 1.25-.56 1.25-1.25V4.75c0-.69-.56-1.25-1.25-1.25ZM15.25 19.25c0 .69-.56 1.25-1.25 1.25H4.75c-.69 0-1.25-.56-1.25-1.25V8.75c0-.69.56-1.25 1.25-1.25H6v1.5H4.75c-.138 0-.25.112-.25.25v10.5c0 .138.112.25.25.25h9.25c.138 0 .25-.112.25-.25V18h1.5v1.25Z" fill="currentColor" />
</svg>
